<svg width="64" height="33" viewBox="0 0 64 33" fill="none" xmlns="http://www.w3.org/2000/svg">
<path fill-rule="evenodd" clip-rule="evenodd" d="M32.788 13.9683C32.691 13.8461 32.5638 13.8021 32.4064 13.8362C32.1049 13.9027 31.6782 13.9923 31.1264 14.1051C30.5728 14.2047 30.2041 14.2732 30.0201 14.3108C30.352 13.7547 30.6342 13.2321 30.8669 12.7429C31.1128 12.252 31.3584 11.7072 31.6037 11.1084C31.849 10.5097 32.0298 9.93291 32.1459 9.37807C32.262 8.82324 32.33 8.26123 32.3499 7.69203C32.3812 7.10784 32.3189 6.52918 32.1628 5.95606C32.0068 5.38294 31.7662 4.83438 31.4413 4.31039C31.0863 3.76334 30.6511 3.27401 30.1359 2.84239C29.6322 2.39578 29.0983 2.02732 28.5341 1.73702C27.9699 1.44673 27.3579 1.20317 26.6981 1.00635C26.0365 0.796273 25.3894 0.645005 24.7567 0.55255C24.1356 0.445093 23.4931 0.3809 22.8293 0.359971C21.364 0.295709 19.8488 0.366131 18.2838 0.571238C16.7171 0.763081 15.1395 1.07776 13.551 1.51528C11.9758 1.95107 10.4621 2.54742 9.00994 3.30433C7.55775 4.06125 6.24145 4.92852 5.06101 5.90613C3.88058 6.88375 2.87961 8.04695 2.0581 9.39572C1.23659 10.7445 0.691077 12.192 0.421567 13.7382C0.389375 13.9043 0.434151 14.0401 0.555894 14.1456C0.6759 14.2378 0.807977 14.2677 0.952127 14.2353C1.09454 14.1897 1.18271 14.0904 1.21664 13.9376C1.39762 12.8481 1.7159 11.8284 2.17146 10.8783C2.62529 9.91496 3.16771 9.06143 3.79871 8.31771C4.44124 7.55898 5.17953 6.8619 6.01359 6.22647C6.84591 5.57777 7.70366 5.02017 8.58685 4.55368C9.48155 4.07218 10.4429 3.63591 11.4709 3.24486C12.4988 2.85382 13.4957 2.53431 14.4615 2.28632C15.4388 2.02333 16.4478 1.79665 17.4886 1.60628C18.3951 1.42004 19.3632 1.29315 20.3931 1.22562C21.4345 1.14309 22.4307 1.1272 23.3817 1.17794C24.3327 1.22867 25.2935 1.40628 26.2643 1.71074C27.2465 2.0002 28.1375 2.41631 28.9371 2.95904C29.6052 3.42459 30.1392 3.94817 30.5392 4.52979C30.9507 5.09641 31.2057 5.70378 31.3041 6.3519C31.4141 6.98503 31.4445 7.62858 31.3953 8.28256C31.3576 8.92154 31.2098 9.59519 30.9519 10.3035C30.7072 11.0101 30.4424 11.6654 30.1573 12.2693C29.8837 12.8583 29.5548 13.4882 29.1706 14.1591C29.1493 14.2024 29.1107 14.2681 29.0548 14.3564C28.9989 14.4447 28.9661 14.5029 28.9563 14.5312C27.2876 14.8713 25.832 15.1902 24.5894 15.488C23.3584 15.7708 21.9959 16.1314 20.502 16.5701C19.0081 17.0087 17.5901 17.5115 16.248 18.0787C14.9041 18.6325 13.6303 19.2581 12.4266 19.9555C11.713 15.7456 11.4024 11.5234 11.495 7.28879C11.5006 7.12617 11.4386 7.01289 11.3088 6.94896C11.179 6.88503 11.0446 6.88915 10.9057 6.96132C10.7668 7.03349 10.6945 7.15088 10.6888 7.31351C10.5888 11.6975 10.9176 16.059 11.6752 20.398C10.7759 20.9475 9.92337 21.5449 9.11757 22.1901C8.65357 22.5612 8.19306 22.9588 7.73601 23.383C7.27897 23.8071 6.7868 24.3235 6.25952 24.9323C5.73397 25.5542 5.29376 26.1583 4.93889 26.7444C4.59902 27.3421 4.3647 27.9731 4.23593 28.6375C4.10891 29.3152 4.15744 29.9429 4.38155 30.5205C5.18842 32.5598 7.60651 32.688 11.6358 30.9053C15.3094 29.2907 18.6761 27.1362 21.7361 24.4418C24.8092 21.7457 27.3883 18.6759 29.4731 15.2324C29.7499 15.1826 30.0855 15.1184 30.4799 15.0398C30.8876 14.9593 31.2687 14.8824 31.6233 14.809C31.9121 14.7499 32.181 14.6977 32.43 14.6522C31.6999 15.7834 31.3102 16.87 31.2609 17.912C31.2341 18.4282 31.3587 18.8638 31.6345 19.2188C31.9237 19.5721 32.3251 19.7016 32.8389 19.6073C33.3394 19.5148 33.7564 19.197 34.09 18.6542C34.4235 18.1113 34.6515 17.5351 34.774 16.9255C34.9195 16.2858 34.8271 15.6841 34.4969 15.1203C34.165 14.5433 33.6769 14.216 33.0327 14.1386C32.9836 14.1348 32.9381 14.1361 32.8962 14.1425C32.8773 14.079 32.8412 14.0209 32.788 13.9683ZM22.5662 22.5927C20.3393 24.7463 17.8982 26.6041 15.243 28.1662C13.7153 29.0679 12.1513 29.8462 10.5508 30.5012C9.7581 30.8344 9.15301 31.0554 8.73557 31.164C8.23854 31.2831 7.78099 31.3431 7.3629 31.3439C6.73087 31.3593 6.26572 31.2584 5.96744 31.0412C5.66917 30.824 5.46016 30.4129 5.34041 29.8081C4.82732 27.2312 6.98954 24.3779 11.8271 21.2482C12.0874 22.6171 12.3722 23.9153 12.6815 25.1428C12.7289 25.2985 12.8215 25.3875 12.9594 25.41C13.1122 25.4439 13.2422 25.4066 13.3494 25.2981C13.4583 25.2029 13.4957 25.0766 13.4616 24.9192C13.1252 23.5873 12.8299 22.2095 12.5759 20.7858C14.7267 19.4922 17.0656 18.4504 19.5927 17.6605C22.1198 16.8707 25.052 16.1356 28.3894 15.4554C26.7475 18.0584 24.8064 20.4375 22.5662 22.5927ZM33.3751 18.1408C32.9407 18.7374 32.5827 18.9394 32.3012 18.747C32.1529 18.645 32.0525 18.4963 31.9999 18.3008C31.9605 18.1036 31.9659 17.8871 32.0159 17.6512C32.0642 17.402 32.1324 17.1503 32.2204 16.8959C32.3085 16.6415 32.4165 16.3845 32.5443 16.125C32.6722 15.8654 32.7854 15.6482 32.8839 15.4734C32.9807 15.2853 33.0743 15.1247 33.1647 14.9914C33.7265 15.1606 34.0249 15.533 34.0598 16.1085C34.107 16.7768 33.8787 17.4542 33.3751 18.1408Z" fill="#F6F6F6"/>
<path d="M45.1934 23.2821C45.2354 24.1881 45.2903 25.0941 45.3581 26C45.3789 26.1592 45.4543 26.2707 45.5841 26.3347C45.7271 26.3968 45.8615 26.3927 45.9871 26.3223C46.1261 26.2501 46.1917 26.1336 46.1842 25.9727C46.1098 25.0201 46.0502 24.0676 46.0052 23.1151C49.4042 22.4063 52.7413 21.5854 55.6818 20.6557C58.7471 19.6865 61.4478 18.5789 63.3395 17.3183L62.2269 15.6487C60.5721 16.7514 58.0856 17.7913 55.0769 18.7426C52.3161 19.6155 49.1711 20.3969 45.9314 21.0805C45.8311 17.1166 45.9849 13.1532 46.3927 9.19043C50.258 8.00932 54.0046 6.9517 57.6325 6.01756C57.7881 5.97017 57.8772 5.87756 57.8996 5.73972C57.9335 5.58688 57.8962 5.45686 57.7877 5.34967C57.6925 5.24074 57.5662 5.20333 57.4088 5.23745C53.8853 6.14442 50.2488 7.16738 46.4994 8.30631C46.668 6.81377 46.8451 5.48875 47.0307 4.33124C47.0496 4.16688 46.9991 4.0386 46.879 3.94641C46.7573 3.84095 46.6244 3.80441 46.4802 3.83679C46.3493 3.86744 46.2678 3.96581 46.2356 4.13192C46.0213 5.48205 45.8302 6.9573 45.6622 8.55768C43.5491 9.21236 41.6903 9.79998 40.0857 10.3206C39.9963 10.3592 39.9295 10.4152 39.8851 10.4885C39.8275 10.5635 39.8039 10.6408 39.8143 10.7204C39.8247 10.7999 39.8484 10.8778 39.8854 10.9539C39.9206 11.0167 39.9806 11.0628 40.0654 11.0922C40.1369 11.1233 40.2182 11.1261 40.3093 11.1007C41.8493 10.602 43.598 10.0491 45.5555 9.4418C45.4514 10.4973 45.3648 11.5527 45.2957 12.608C44.973 13.2913 44.5104 13.9807 43.9079 14.6761C43.2867 15.3916 42.655 15.8723 42.0127 16.1184C41.7977 16.2275 41.6031 16.2867 41.4289 16.2961C41.2531 16.2922 41.1095 16.2772 40.9981 16.2514C40.8868 16.2255 40.7769 16.1589 40.6684 16.0518C40.5732 15.9428 40.4921 15.8388 40.4252 15.7396C40.3715 15.6387 40.3143 15.5113 40.2537 15.3574C40.2046 15.1885 40.158 15.0394 40.1141 14.9103C40.0685 14.7679 40.0145 14.6131 39.9521 14.4459C39.903 14.2769 39.8432 14.1296 39.7728 14.0039C39.6856 13.8535 39.55 13.7971 39.3661 13.8347C39.1954 13.8705 39.0865 13.9657 39.0393 14.1203C38.5502 15.8437 38.056 16.8596 37.5568 17.1678C37.1567 17.4091 36.8807 17.3104 36.7288 16.8716C36.5347 16.317 36.5224 15.5024 36.6918 14.428C36.7108 14.2636 36.6602 14.1353 36.5402 14.0431C36.4185 13.9377 36.2864 13.9078 36.144 13.9534C36.0131 13.9841 35.9307 14.0758 35.8968 14.2286C35.8554 14.5308 35.8286 14.8919 35.8161 15.3117C35.7887 15.72 35.7956 16.1845 35.8369 16.7052C35.8764 17.2127 36.0001 17.6416 36.2079 17.9921C36.4007 18.3311 36.673 18.5045 37.0248 18.5124C37.8892 18.5205 38.7052 17.4895 39.4726 15.4193C39.5604 15.6776 39.6272 15.8779 39.6728 16.0204C39.7317 16.161 39.8148 16.3323 39.9222 16.534C40.0429 16.7341 40.1632 16.8802 40.2832 16.9724C40.4165 17.0628 40.5878 17.1348 40.7972 17.1883C41.0048 17.2285 41.2479 17.2304 41.5264 17.1939C42.4098 17.0377 43.2794 16.519 44.1352 15.6379C44.5359 15.2182 44.8899 14.7929 45.197 14.3617C45.0888 16.6579 45.0635 18.9537 45.1209 21.2492C45.1184 21.2497 45.1158 21.2502 45.1133 21.2507C38.0596 22.6973 30.7345 23.6704 26.1507 24.1226L26.3477 26.1193C30.9166 25.6686 38.1595 24.7089 45.1934 23.2821Z" fill="#F6F6F6"/>
<path fill-rule="evenodd" clip-rule="evenodd" d="M55.0606 12.948C54.7913 13.5982 54.642 14.2327 54.6127 14.8515C54.5859 15.3676 54.7105 15.8032 54.9863 16.1583C55.2755 16.5116 55.6769 16.6411 56.1907 16.5468C56.6912 16.4543 57.1082 16.1365 57.4418 15.5937C57.7753 15.0508 58.0033 14.4746 58.1258 13.865C58.2713 13.2253 58.179 12.6236 57.8488 12.0598C57.5168 11.4828 57.0287 11.1555 56.3845 11.0781C56.1798 11.0622 56.0373 11.1353 55.957 11.2972C55.8869 11.3129 55.8203 11.355 55.7571 11.4234C55.0102 12.2093 54.1011 12.632 53.0297 12.6914C51.9582 12.7509 51.0056 12.4306 50.1719 11.7304C50.0952 11.6595 49.9963 11.6253 49.8752 11.6277C49.7673 11.6283 49.6788 11.6736 49.6097 11.7636C49.2196 12.2869 48.8832 12.9111 48.6005 13.6362C48.6588 12.8461 48.7477 12.0318 48.8671 11.1932C48.8878 11.0421 48.8381 10.9204 48.7181 10.8283C48.5964 10.7228 48.4634 10.6863 48.3193 10.7186C48.1752 10.751 48.0936 10.8494 48.0747 11.0138C47.7325 13.4464 47.653 15.568 47.8364 17.3787C47.859 17.5511 47.9352 17.6693 48.065 17.7332C48.1948 17.7971 48.3225 17.7939 48.4482 17.7235C48.5738 17.653 48.6395 17.5365 48.6452 17.3739C48.7063 16.5025 48.8439 15.648 49.0579 14.8106C49.2852 13.9714 49.6002 13.2353 50.0029 12.6025C50.9975 13.295 52.0876 13.5838 53.2732 13.4689C53.9187 13.4061 54.5146 13.2325 55.0606 12.948ZM56.727 15.0803C56.2925 15.6768 55.9345 15.8789 55.653 15.6865C55.5047 15.5845 55.4043 15.4358 55.3517 15.2403C55.3124 15.0431 55.3177 14.8266 55.3677 14.5907C55.416 14.3415 55.4842 14.0898 55.5723 13.8354C55.6603 13.581 55.7683 13.324 55.8962 13.0645C56.024 12.8049 56.1372 12.5877 56.2357 12.4129C56.3325 12.2248 56.4261 12.0642 56.5166 11.9309C57.0783 12.1001 57.3767 12.4725 57.4117 13.048C57.4588 13.7163 57.2306 14.3937 56.727 15.0803Z" fill="#F6F6F6"/>
</svg>
